<?xml version="1.0" encoding="utf-8"?>
<!-- Generator: Adobe Illustrator 27.1.1, SVG Export Plug-In . SVG Version: 6.00 Build 0)  -->
<svg version="1.1" id="Layer_1" xmlns="http://www.w3.org/2000/svg" xmlns:xlink="http://www.w3.org/1999/xlink" x="0px" y="0px"
	 width="260" height="80" viewBox="0 0 68.4 23" style="enable-background:new 0 0 68.4 23;" xml:space="preserve">
<style type="text/css">
	.st0{fill:url(#SVGID_1_);}
	.st1{fill:url(#SVGID_00000042714486351698229360000013913269066348897933_);}
	.st2{fill:url(#SVGID_00000095313441859072913230000009331892476595700636_);}
	.st3{fill:url(#SVGID_00000092422796606815493530000013999078850786916262_);}
	.st4{fill:url(#SVGID_00000077287025208201052390000000257254525747442350_);}
	.st5{fill:url(#SVGID_00000065037862742644127730000005504116841048117429_);}
	.st6{fill:none;}
	.st7{fill:#F7931E;}
	.st8{font-family:'CooperBlack';}
	.st9{font-size:12px;}
	.st10{display:none;fill:none;stroke:#C69C6D;stroke-miterlimit:10;}
	.st11{fill:none;stroke:#C69C6D;stroke-miterlimit:10;}
</style>
<g>
	<g>
		<linearGradient id="SVGID_1_" gradientUnits="userSpaceOnUse" x1="118.4466" y1="16.086" x2="118.9466" y2="16.086">
			<stop  offset="0" style="stop-color:#FFFFFF"/>
			<stop  offset="1" style="stop-color:#F15A24"/>
		</linearGradient>
		<path class="st0" d="M30.6,15.6l1.1,2.4c0.1,0.2,0.2,0.4,0.3,0.4c0.1,0.1,0.2,0.1,0.3,0.1c0.3,0,0.4,0.2,0.4,0.4
			c0,0.3-0.2,0.5-0.5,0.6c-0.3,0.1-0.9,0.2-1.7,0.2c-0.9,0-1.5,0-2-0.1c-0.2,0-0.4-0.1-0.5-0.2s-0.2-0.2-0.2-0.4
			c0-0.1,0-0.2,0.1-0.3s0.2-0.1,0.3-0.2c0.2-0.1,0.3-0.2,0.3-0.3c0-0.3-0.2-0.4-0.5-0.5c-0.3,0-0.8-0.1-1.4-0.1
			c-0.5,0-0.8,0-0.9,0.1c-0.1,0-0.1,0.1-0.2,0.2s-0.1,0.2-0.1,0.3c0,0.1,0,0.1,0,0.2s0.1,0.1,0.3,0.1c0.2,0.1,0.4,0.2,0.4,0.4
			c0,0.5-0.6,0.7-1.7,0.7c-0.6,0-1.1,0-1.4-0.1c-0.3-0.1-0.4-0.3-0.4-0.5c0-0.1,0-0.2,0.1-0.3s0.2-0.1,0.3-0.2
			c0.3-0.1,0.4-0.2,0.6-0.4s0.3-0.5,0.6-1l0.8-1.8c0.3-0.7,0.5-1.2,0.6-1.5s0.2-0.7,0.2-1c0-0.3,0-0.6,0.1-0.7s0.1-0.3,0.2-0.4
			c0.3-0.3,0.6-0.4,1-0.4c0.4,0,0.8,0.2,1.1,0.5C28.9,12.3,29.7,13.5,30.6,15.6z M26.5,16.3h1.1c0.2,0,0.3,0,0.3-0.1
			c0-0.1-0.1-0.4-0.4-0.9c-0.1-0.2-0.2-0.4-0.3-0.5s-0.1-0.1-0.2-0.1c-0.1,0-0.3,0.1-0.4,0.4c0,0-0.1,0.2-0.2,0.4
			c-0.2,0.4-0.2,0.6-0.2,0.7C26.3,16.3,26.4,16.3,26.5,16.3z"/>
		
			<linearGradient id="SVGID_00000047018074769865988260000005061816073493591992_" gradientUnits="userSpaceOnUse" x1="118.4466" y1="16.086" x2="118.9466" y2="16.086">
			<stop  offset="0" style="stop-color:#FFFFFF"/>
			<stop  offset="1" style="stop-color:#F15A24"/>
		</linearGradient>
		<path style="fill:url(#SVGID_00000047018074769865988260000005061816073493591992_);" d="M33.9,16.9v-3.1c0-0.4,0-0.7-0.1-0.8
			s-0.2-0.2-0.4-0.3c-0.4-0.1-0.5-0.3-0.5-0.5c0-0.2,0.1-0.3,0.2-0.4s0.4-0.1,0.6-0.1c0.1,0,0.3,0,0.7,0h0.4c0.6,0,1,0,1.1,0
			s0.5,0,1.2-0.1c0.2,0,0.4,0,0.6,0c0.6,0,1.2,0.1,1.7,0.4c0.9,0.5,1.3,1.2,1.3,2.2c0,0.8-0.3,1.4-0.9,1.9c-0.6,0.4-1.3,0.7-2.1,0.7
			c-0.2,0-0.5,0-0.8,0c-0.2,0-0.3,0-0.3,0c-0.1,0-0.2,0.1-0.2,0.2v0l0,1c0,0.2,0,0.3,0.1,0.4s0.2,0.2,0.4,0.3
			c0.3,0.1,0.4,0.3,0.4,0.4c0,0.2-0.2,0.4-0.6,0.6s-0.9,0.2-1.6,0.2c-1.4,0-2.2-0.2-2.2-0.7c0-0.1,0-0.2,0.1-0.3s0.2-0.2,0.4-0.3
			c0.1-0.1,0.2-0.2,0.2-0.3S33.9,17.6,33.9,16.9z M36.6,13v2c0,0.2,0,0.2,0.1,0.3c0.1,0.1,0.3,0.1,0.4,0.1c0.3,0,0.5-0.1,0.7-0.2
			c0.3-0.2,0.4-0.6,0.4-1c0-0.5-0.1-0.9-0.4-1.1c-0.2-0.1-0.4-0.2-0.7-0.2C36.7,12.8,36.6,12.9,36.6,13z"/>
		
			<linearGradient id="SVGID_00000119824076210446177890000003616784784119527041_" gradientUnits="userSpaceOnUse" x1="118.4466" y1="16.086" x2="118.9466" y2="16.086">
			<stop  offset="0" style="stop-color:#FFFFFF"/>
			<stop  offset="1" style="stop-color:#F15A24"/>
		</linearGradient>
		<path style="fill:url(#SVGID_00000119824076210446177890000003616784784119527041_);" d="M43.7,11.5c0.4,0,0.9,0,1.3,0.1
			c0.5,0.1,0.8,0.3,0.8,0.7c0,0.1,0,0.2-0.1,0.3s-0.2,0.1-0.4,0.2c-0.2,0.1-0.3,0.3-0.4,0.6s-0.1,0.9-0.1,1.8c0,1.5,0,2.4,0.1,2.8
			c0,0.1,0.1,0.2,0.1,0.3s0.2,0.1,0.3,0.2c0.3,0.1,0.4,0.3,0.4,0.5c0,0.3-0.2,0.5-0.7,0.6c-0.5,0.1-1.1,0.2-1.9,0.2
			c-1.3,0-1.9-0.2-1.9-0.7c0-0.2,0.1-0.3,0.4-0.5c0.2-0.1,0.3-0.3,0.3-0.5c0.1-0.4,0.1-1.4,0.1-2.8c0-1-0.1-1.6-0.2-1.9
			c-0.1-0.2-0.2-0.3-0.4-0.4c-0.2-0.1-0.3-0.2-0.3-0.3s-0.1-0.2-0.1-0.3c0-0.2,0.1-0.3,0.2-0.4s0.4-0.2,0.9-0.3
			C42.7,11.5,43.2,11.5,43.7,11.5z"/>
		
			<linearGradient id="SVGID_00000142862452366236218120000003145861398341346984_" gradientUnits="userSpaceOnUse" x1="118.4466" y1="16.086" x2="118.9466" y2="16.086">
			<stop  offset="0" style="stop-color:#FFFFFF"/>
			<stop  offset="1" style="stop-color:#F15A24"/>
		</linearGradient>
		<path style="fill:url(#SVGID_00000142862452366236218120000003145861398341346984_);" d="M51.9,17.2l-0.7,1.6
			c-0.1,0.3-0.2,0.4-0.3,0.5s-0.2,0.1-0.2,0.1c-0.1,0-0.2,0-0.2-0.1c0,0-0.1-0.2-0.3-0.5s-0.3-0.6-0.4-0.8L49,16.3
			c-0.1-0.2-0.2-0.4-0.3-0.4c-0.1,0-0.2,0.1-0.2,0.3c0,0.5,0,0.9,0,1.3c0,0.4,0,0.7,0.1,0.8c0,0.1,0.1,0.1,0.1,0.2s0.2,0.1,0.4,0.2
			c0.1,0.1,0.2,0.2,0.2,0.3c0,0.4-0.6,0.7-1.7,0.7c-0.9,0-1.4-0.2-1.4-0.6c0-0.1,0-0.2,0.1-0.2s0.2-0.1,0.4-0.2
			c0.1-0.1,0.2-0.1,0.3-0.2s0.1-0.3,0.1-0.6c0-0.3,0.1-0.8,0.1-1.5c0-0.7,0-1.3,0-1.8c0-0.6,0-1.1-0.1-1.3c0-0.1-0.1-0.1-0.1-0.2
			s-0.1-0.1-0.3-0.2c-0.3-0.1-0.4-0.3-0.4-0.5c0-0.1,0.1-0.3,0.2-0.4s0.2-0.2,0.4-0.2c0.2-0.1,0.4-0.1,0.7-0.1s0.5-0.1,0.7-0.1
			c0.5,0,0.9,0,1.1,0.1c0.1,0,0.2,0.1,0.2,0.2s0.1,0.2,0.3,0.4l1.2,2.2c0.1,0.2,0.2,0.4,0.3,0.5s0.1,0.1,0.2,0.1
			c0.1,0,0.1,0,0.2-0.1s0.1-0.2,0.2-0.3l0.8-1.6c0.1-0.2,0.2-0.3,0.2-0.4c0.2-0.4,0.4-0.7,0.6-0.8c0.2-0.2,0.7-0.3,1.3-0.3
			c1.1,0,1.7,0.3,1.7,0.8c0,0.1,0,0.2-0.1,0.3s-0.1,0.2-0.3,0.2c-0.2,0.1-0.3,0.3-0.3,0.6c-0.1,0.5-0.1,1.2-0.1,2c0,1,0,1.9,0.1,2.6
			c0,0.2,0.1,0.3,0.1,0.4s0.2,0.2,0.4,0.3c0.1,0.1,0.2,0.2,0.2,0.4c0,0.3-0.2,0.5-0.5,0.6c-0.2,0.1-0.4,0.1-0.6,0.1s-0.5,0-1,0
			c-0.7,0-1.2,0-1.5-0.1c-0.4-0.1-0.5-0.3-0.5-0.5c0-0.1,0-0.2,0.1-0.2s0.2-0.2,0.4-0.3c0.1-0.1,0.2-0.2,0.2-0.5s0.1-0.6,0.1-1.2
			c0-0.3,0-0.5,0-0.6s-0.1-0.1-0.2-0.1c-0.1,0-0.2,0.1-0.3,0.2S52.1,16.7,51.9,17.2z"/>
		
			<linearGradient id="SVGID_00000003063293783701290550000012446333328415012280_" gradientUnits="userSpaceOnUse" x1="118.4466" y1="16.086" x2="118.9466" y2="16.086">
			<stop  offset="0" style="stop-color:#FFFFFF"/>
			<stop  offset="1" style="stop-color:#F15A24"/>
		</linearGradient>
		<path style="fill:url(#SVGID_00000003063293783701290550000012446333328415012280_);" d="M62.1,17h-2.8c-0.1,0-0.2,0.1-0.2,0.2
			c0,0.3,0.1,0.5,0.4,0.7s0.6,0.3,0.9,0.3c0.2,0,0.4,0,0.6-0.1s0.4-0.2,0.6-0.3c0.1-0.1,0.2-0.1,0.3-0.1c0.1,0,0.2,0.1,0.3,0.2
			s0.1,0.3,0.1,0.4c0,0.3-0.2,0.6-0.5,0.8c-0.6,0.5-1.3,0.7-2.2,0.7c-0.8,0-1.5-0.2-2.1-0.7c-0.3-0.2-0.5-0.5-0.7-0.8
			c-0.2-0.4-0.3-0.9-0.3-1.4c0-0.7,0.2-1.2,0.6-1.8c0.3-0.5,0.8-0.8,1.3-1c0.4-0.2,0.8-0.3,1.3-0.3c0.7,0,1.4,0.2,1.9,0.6
			c0.3,0.2,0.5,0.5,0.6,0.8c0.2,0.3,0.3,0.6,0.3,1c0,0.3-0.1,0.5-0.2,0.6S62.3,17,62.1,17z M59.5,15.9h0.6c0.2,0,0.4-0.1,0.4-0.3
			c0-0.2-0.1-0.4-0.2-0.5s-0.3-0.2-0.5-0.2c-0.2,0-0.4,0.1-0.5,0.3c-0.1,0.2-0.2,0.3-0.2,0.5c0,0.1,0,0.2,0.1,0.2
			S59.4,15.9,59.5,15.9z"/>
		
			<linearGradient id="SVGID_00000031886625347392821720000008958720014587817095_" gradientUnits="userSpaceOnUse" x1="118.4466" y1="16.086" x2="118.9466" y2="16.086">
			<stop  offset="0" style="stop-color:#FFFFFF"/>
			<stop  offset="1" style="stop-color:#F15A24"/>
		</linearGradient>
		<path style="fill:url(#SVGID_00000031886625347392821720000008958720014587817095_);" d="M64.7,11.7c0.3,0,0.6,0.1,0.9,0.4
			c0.3,0.3,0.5,0.8,0.5,1.4c0,0.4-0.1,0.8-0.2,1.3s-0.3,0.9-0.6,1.2c-0.3,0.4-0.5,0.6-0.6,0.6c-0.2,0-0.4-0.3-0.7-0.8
			c-0.2-0.4-0.4-0.8-0.5-1.2s-0.2-0.8-0.2-1.2c0-0.4,0.1-0.8,0.3-1.1C63.9,11.9,64.3,11.7,64.7,11.7z M64.8,17.2
			c0.3,0,0.6,0.1,0.9,0.4c0.2,0.2,0.4,0.5,0.4,0.9c0,0.3-0.1,0.6-0.4,0.9s-0.5,0.4-0.9,0.4c-0.3,0-0.6-0.1-0.9-0.3
			c-0.3-0.2-0.4-0.6-0.4-0.9c0-0.3,0.1-0.6,0.3-0.9C64.1,17.4,64.4,17.2,64.8,17.2z"/>
	</g>
	<rect x="22.8" y="11.6" class="st6" width="45.6" height="12.9"/>
	<text transform="matrix(1 0 0 1 22.8156 19.6118)" class="st7 st8 st9">APIMe!</text>
</g>
<path class="st10" d="M53.9-63.9"/>
<polygon class="st11" points="9.4,16.1 9.7,14 8.1,12.6 10.2,12.2 11.1,10.3 12,12.2 14.1,12.4 12.7,13.9 13.1,15.9 11.2,15 "/>
<polygon class="st11" points="11.1,5.3 13.7,10.5 19.4,11.3 15.3,15.4 16.2,21.1 11.1,18.4 6,21.1 7,15.4 2.9,11.3 8.6,10.5 "/>
<path class="st10" d="M6,21.1c0,5.4,7.5,9.7,16.8,9.7"/>
<path class="st10" d="M22.8,30.8c0-4.5,6.5-8.2,14.6-8.2"/>
<path class="st10" d="M37.4,22.6c0,3.7,6.3,6.7,14.1,6.7"/>
<path class="st10" d="M51.5,29.3c0-6.2,16.8-11.3,37.6-11.3"/>
</svg>
